<?xml version="1.0" standalone="no"?>
<!DOCTYPE svg PUBLIC "-//W3C//DTD SVG 20010904//EN"
 "http://www.w3.org/TR/2001/REC-SVG-20010904/DTD/svg10.dtd">
<svg version="1.0" xmlns="http://www.w3.org/2000/svg"
 width="700.000000pt" height="700.000000pt" viewBox="0 0 700.000000 700.000000"
 preserveAspectRatio="xMidYMid meet">
<metadata>
Created by potrace 1.14, written by Peter Selinger 2001-2017
</metadata>
<g transform="translate(0.000000,700.000000) scale(0.100000,-0.100000)"
fill="#000000" stroke="none">
<path d="M2219 6990 c-1019 -33 -1491 -184 -1812 -578 -239 -293 -340 -660
-389 -1417 -19 -284 -19 -2706 0 -2990 42 -642 120 -995 278 -1257 214 -355
530 -557 1022 -652 427 -83 892 -101 2447 -93 1219 6 1479 17 1838 78 748 127
1145 491 1291 1185 86 412 106 820 106 2234 0 1391 -20 1816 -102 2215 -130
632 -464 997 -1058 1154 -203 53 -440 86 -820 112 -200 13 -2437 21 -2801 9z
m-231 -2298 c45 -677 230 -1183 556 -1521 135 -139 273 -232 435 -291 l81 -30
0 1010 0 1010 380 0 380 0 0 -575 c0 -468 2 -575 13 -575 7 0 47 9 89 20 335
88 676 409 882 831 34 69 75 165 91 212 l30 87 372 0 c349 0 373 -1 373 -17 0
-71 -89 -340 -160 -488 -167 -346 -463 -689 -762 -884 -48 -31 -87 -58 -87
-61 -1 -3 28 -20 63 -38 101 -52 263 -162 365 -247 343 -286 586 -642 725
-1061 20 -60 36 -109 36 -111 0 -2 -186 -3 -414 -3 l-413 0 -23 63 c-129 359
-409 684 -725 841 -105 52 -240 98 -340 115 -38 7 -80 14 -92 17 l-23 4 0
-521 0 -522 -207 6 c-276 8 -461 35 -693 103 -519 150 -940 461 -1234 910
-239 367 -399 836 -466 1369 -17 136 -40 427 -40 502 l0 23 398 0 399 0 11
-178z"/>
</g>
</svg>
