<svg width="317" height="420" viewBox="0 0 317 420" fill="none" xmlns="http://www.w3.org/2000/svg">
<path d="M63.8572 419.963C56.1801 377.669 33.2304 340.695 0.928375 314.963H41.8405C68.0119 343.623 86.0444 379.842 92.2812 419.963H63.8572Z" fill="#005EFF"/>
<path d="M174.594 419.963C166.916 377.669 143.967 340.695 111.665 314.963H152.577C178.748 343.623 196.781 379.842 203.018 419.963H174.594Z" fill="#005EFF"/>
<path d="M285.332 419.963C277.655 377.669 254.705 340.695 222.403 314.963H263.315C289.487 343.623 307.519 379.842 313.756 419.963H285.332Z" fill="#005EFF"/>
<path d="M63.8416 315C56.1645 272.706 33.2148 235.732 0.91275 210H41.8249C67.9963 238.66 86.0288 274.879 92.2656 315H63.8416Z" fill="#005EFF"/>
<path d="M174.578 315C166.901 272.706 143.951 235.732 111.649 210H152.561C178.733 238.66 196.765 274.879 203.002 315H174.578Z" fill="#005EFF"/>
<path d="M285.316 315C277.639 272.706 254.689 235.732 222.387 210H263.3C289.471 238.66 307.503 274.879 313.74 315H285.316Z" fill="#005EFF"/>
<path d="M63.8416 105.006C56.1645 147.3 33.2148 184.274 0.91275 210.006H41.8249C67.9963 181.346 86.0288 145.127 92.2656 105.006H63.8416Z" fill="#005EFF"/>
<path d="M174.578 105.006C166.901 147.3 143.951 184.274 111.649 210.006H152.561C178.733 181.346 196.765 145.127 203.002 105.006H174.578Z" fill="#005EFF"/>
<path d="M285.316 105.006C277.639 147.3 254.689 184.274 222.387 210.006H263.3C289.471 181.346 307.503 145.127 313.74 105.006H285.316Z" fill="#005EFF"/>
<path d="M63.8416 0C56.1645 42.2944 33.2148 79.2678 0.91275 105H41.8249C67.9963 76.3403 86.0288 40.1213 92.2656 0H63.8416Z" fill="#005EFF"/>
<path d="M174.578 0C166.901 42.2944 143.951 79.2678 111.649 105H152.561C178.733 76.3403 196.765 40.1213 203.002 0H174.578Z" fill="#005EFF"/>
<path d="M285.316 0C277.639 42.2944 254.689 79.2678 222.387 105H263.3C289.471 76.3403 307.503 40.1213 313.74 0H285.316Z" fill="#005EFF"/>
</svg>
