<svg width="631" height="232" viewBox="0 0 631 232" fill="none" xmlns="http://www.w3.org/2000/svg">
<path d="M22.5878 116.297C30.8363 162.514 55.2501 203.133 89.7723 232.097H57.319C27.6395 200.834 7.10465 160.806 0 116.297H22.5878Z" fill="#005EFF"/>
<path d="M152.641 116.297C160.889 162.514 185.303 203.133 219.825 232.097H187.372C157.692 200.834 137.157 160.806 130.053 116.297H152.641Z" fill="#005EFF"/>
<path d="M282.693 116.297C290.942 162.514 315.356 203.133 349.878 232.097H317.424C287.745 200.834 267.21 160.806 260.105 116.297H282.693Z" fill="#005EFF"/>
<path d="M412.744 116.297C420.993 162.514 445.406 203.133 479.929 232.097H447.475C417.796 200.834 397.261 160.806 390.156 116.297H412.744Z" fill="#005EFF"/>
<path d="M542.797 116.297C551.045 162.514 575.459 203.133 609.981 232.097H577.528C547.848 200.834 527.314 160.806 520.209 116.297H542.797Z" fill="#005EFF"/>
<path d="M22.5878 0.496094C30.8363 46.7136 55.2501 87.3325 89.7723 116.296H57.319C27.6395 85.0336 7.10465 45.0051 0 0.496094H22.5878Z" fill="#005EFF"/>
<path d="M152.641 0.496094C160.889 46.7136 185.303 87.3325 219.825 116.296H187.372C157.692 85.0336 137.157 45.0051 130.053 0.496094H152.641Z" fill="#005EFF"/>
<path d="M282.693 0.496094C290.942 46.7136 315.356 87.3325 349.878 116.296H317.424C287.745 85.0336 267.21 45.0051 260.105 0.496094H282.693Z" fill="#005EFF"/>
<path d="M412.744 0.496094C420.993 46.7136 445.406 87.3325 479.929 116.296H447.475C417.796 85.0336 397.261 45.0051 390.156 0.496094H412.744Z" fill="#005EFF"/>
<path d="M542.797 0.496094C551.045 46.7136 575.459 87.3325 609.981 116.296H577.528C547.848 85.0336 527.314 45.0051 520.209 0.496094H542.797Z" fill="#005EFF"/>
</svg>
