<svg width="265" height="550" viewBox="0 0 265 550" fill="none" xmlns="http://www.w3.org/2000/svg">
<path d="M82.3095 549.205C72.2731 493.913 42.2706 445.577 0.0415802 411.937H53.5267C87.741 449.404 111.315 496.754 119.469 549.205H82.3095Z" fill="#005EFF"/>
<path d="M227.079 549.205C217.043 493.913 187.04 445.577 144.811 411.937H198.296C232.511 449.404 256.085 496.754 264.238 549.205H227.079Z" fill="#005EFF"/>
<path d="M82.2783 412.01C72.2419 356.718 42.2394 308.382 0.0103302 274.741H53.4955C87.7098 312.209 111.284 359.558 119.438 412.01H82.2783Z" fill="#005EFF"/>
<path d="M227.048 412.01C217.011 356.718 187.009 308.382 144.78 274.741H198.265C232.479 312.209 256.054 359.558 264.207 412.01H227.048Z" fill="#005EFF"/>
<path d="M82.2783 137.49C72.2419 192.782 42.2394 241.118 0.0103302 274.759H53.4955C87.7098 237.291 111.284 189.942 119.438 137.49H82.2783Z" fill="#005EFF"/>
<path d="M227.048 137.49C217.011 192.782 187.009 241.118 144.78 274.759H198.265C232.479 237.291 256.054 189.942 264.207 137.49H227.048Z" fill="#005EFF"/>
<path d="M82.2783 0.207031C72.2419 55.4992 42.2394 103.835 0.0103302 137.476H53.4955C87.7098 100.008 111.284 52.6583 119.438 0.207031H82.2783Z" fill="#005EFF"/>
<path d="M227.048 0.207031C217.011 55.4992 187.009 103.835 144.78 137.476H198.265C232.479 100.008 256.054 52.6583 264.207 0.207031H227.048Z" fill="#005EFF"/>
</svg>
