<svg width="40" height="40" viewBox="0 0 40 40" fill="none" xmlns="http://www.w3.org/2000/svg">
<path d="M19.168 40C10.16 40 5.632 40 2.832 37.216C0 34.416 0 29.888 0 20.848V19.184C0 10.144 0 5.616 2.832 2.816C5.632 0 10.16 0 19.168 0H20.832C29.872 0 34.368 0 37.2 2.816C40 5.632 40 10.144 40 19.184V20.848C40 29.888 40 34.416 37.2 37.216C34.368 40 29.872 40 20.832 40H19.168Z" fill="white"/>
<path d="M21.968 28.8478V22.8958C25.248 23.2318 27.6959 25.6798 28.704 28.8478H33.44C32.16 24.1118 28.832 21.4878 26.752 20.4958C28.816 19.2638 31.7439 16.2558 32.4319 12.1918H28.128C27.232 15.5038 24.544 18.4958 21.968 18.7838V12.1758H17.6V23.7118C14.944 23.0398 11.472 19.8078 11.312 12.1758H6.75195C6.95995 22.5758 12.432 28.8318 21.456 28.8318L21.968 28.8478Z" fill="#0077FF"/>
</svg>
