<svg width="403" height="806" viewBox="0 0 403 806" fill="none" xmlns="http://www.w3.org/2000/svg">
<path d="M120.649 805.002C105.935 723.937 61.9478 653.071 0.035202 603.751H78.4505C128.612 658.682 163.175 728.102 175.129 805.002H120.649Z" fill="#005EFF"/>
<path d="M332.897 805.002C318.183 723.937 274.196 653.071 212.283 603.751H290.699C340.861 658.682 375.423 728.102 387.377 805.002H332.897Z" fill="#005EFF"/>
<path d="M120.649 603.756C105.935 522.691 61.9478 451.825 0.035202 402.505H78.4505C128.612 457.436 163.175 526.856 175.129 603.756H120.649Z" fill="#005EFF"/>
<path d="M332.897 603.756C318.183 522.691 274.196 451.825 212.283 402.505H290.699C340.861 457.436 375.423 526.856 387.377 603.756H332.897Z" fill="#005EFF"/>
<path d="M120.649 201.248C105.935 282.313 61.9478 353.179 0.035202 402.499H78.4505C128.612 347.568 163.175 278.148 175.129 201.248H120.649Z" fill="#005EFF"/>
<path d="M332.897 201.248C318.183 282.313 274.196 353.179 212.283 402.499H290.699C340.861 347.568 375.423 278.148 387.377 201.248H332.897Z" fill="#005EFF"/>
<path d="M120.649 -0.00195312C105.935 81.0625 61.9478 151.929 0.035202 201.249H78.4505C128.612 146.318 163.175 76.8976 175.129 -0.00195312H120.649Z" fill="#005EFF"/>
<path d="M332.897 -0.00195312C318.183 81.0625 274.196 151.929 212.283 201.249H290.699C340.861 146.318 375.423 76.8976 387.377 -0.00195312H332.897Z" fill="#005EFF"/>
</svg>
